P2
8 8
255
145 146 147 148 149 150 151 152
165 166 167 168 169 170 171 172
185 186 187 188 189 190 191 192
205 206 207 208 209 210 211 212
225 226 227 228 229 230 231 232
245 246 247 248 249 250 251 252
9 10 11 12 13 14 15 16
29 30 31 32 33 34 35 36
