P2
4 4
255
13 14 15 16
14 15 16 17
15 16 17 18
16 17 18 19
